<svg preserveAspectRatio="none" width="100%" height="100%" overflow="visible" style="display: block;" viewBox="0 0 235 54" fill="none" xmlns="http://www.w3.org/2000/svg">
<g id="Group 1">
<path id="Subtract" d="M235 54H0V0H235V54ZM21.5625 17.5039C20.2745 17.5039 19.1445 17.7558 18.1738 18.2598C17.2033 18.7637 16.4476 19.4452 15.9062 20.3037C15.3649 21.1437 15.0938 22.0866 15.0938 23.1318C15.0938 23.897 15.2338 24.5785 15.5137 25.1758C15.7937 25.7731 16.1584 26.3058 16.6064 26.7725C17.073 27.2203 17.577 27.6027 18.1182 27.9199C18.6781 28.2186 19.2292 28.4705 19.7705 28.6758L21.002 29.124C21.9726 29.4787 22.7379 29.8242 23.2979 30.1602C23.8765 30.4775 24.2876 30.823 24.5303 31.1963C24.7728 31.5509 24.8945 31.9805 24.8945 32.4844C24.8945 33.0068 24.7448 33.4453 24.4463 33.7998C24.1663 34.1545 23.7928 34.4256 23.3262 34.6123C22.8595 34.7803 22.3645 34.8643 21.8418 34.8643C20.7779 34.8642 19.9189 34.5284 19.2656 33.8564C18.6124 33.1845 18.1559 32.3534 17.8945 31.3643L14.3379 32.7637C14.7112 33.9957 15.2622 35.0417 15.9902 35.9004C16.7367 36.7401 17.6047 37.3744 18.5938 37.8037C19.6018 38.233 20.6758 38.4482 21.8145 38.4482C22.5983 38.4482 23.3918 38.3266 24.1943 38.084C25.0154 37.8414 25.7618 37.4773 26.4336 36.9922C27.1055 36.5069 27.647 35.8814 28.0576 35.1162C28.4683 34.3509 28.6738 33.4544 28.6738 32.4277C28.6738 31.4945 28.5242 30.6915 28.2256 30.0195C27.9456 29.3478 27.5537 28.7694 27.0498 28.2842C26.5459 27.799 25.9676 27.3974 25.3145 27.0801C24.6798 26.7441 24.0072 26.4546 23.2979 26.2119L22.0381 25.792C20.8994 25.4187 20.0686 25.0172 19.5459 24.5879C19.042 24.1586 18.79 23.6451 18.79 23.0479C18.7901 22.6373 18.9117 22.283 19.1543 21.9844C19.397 21.667 19.7328 21.4239 20.1621 21.2559C20.5914 21.0692 21.0769 20.9756 21.6182 20.9756C22.1966 20.9756 22.691 21.079 23.1016 21.2842C23.5122 21.4895 23.849 21.7597 24.1104 22.0957C24.3717 22.4317 24.5579 22.7868 24.6699 23.1602L28.002 21.7598C27.7967 21.144 27.4422 20.5095 26.9385 19.8564C26.4532 19.2032 25.7717 18.6521 24.8945 18.2041C24.0173 17.7375 22.9063 17.504 21.5625 17.5039ZM70.6504 17.5039C69.1945 17.5039 67.8221 17.7654 66.5342 18.2881C65.2651 18.8107 64.1453 19.5386 63.1748 20.4717C62.2042 21.4049 61.4389 22.5159 60.8789 23.8037C60.3376 25.0729 60.0665 26.4637 60.0664 27.9756C60.0664 29.4876 60.3376 30.8878 60.8789 32.1758C61.4389 33.4451 62.2041 34.5471 63.1748 35.4805C64.164 36.4136 65.2933 37.1415 66.5625 37.6641C67.8504 38.1867 69.2131 38.4482 70.6504 38.4482C72.0877 38.4482 73.4136 38.2244 74.627 37.7764C75.8402 37.3284 76.8854 36.6837 77.7627 35.8438C78.6586 34.9851 79.3497 33.9583 79.835 32.7637C80.3389 31.5691 80.5908 30.2343 80.5908 28.7598C80.5908 28.5171 80.5715 28.2092 80.5342 27.8359C80.4969 27.4627 80.4505 27.1827 80.3945 26.9961H70.5664V30.2158H76.8662C76.7729 30.7944 76.5682 31.3639 76.251 31.9238C75.9523 32.4652 75.5412 32.9602 75.0186 33.4082C74.5147 33.8561 73.8987 34.2104 73.1709 34.4717C72.4429 34.733 71.612 34.8643 70.6787 34.8643C69.7454 34.8643 68.8682 34.705 68.0469 34.3877C67.2255 34.0517 66.497 33.5856 65.8623 32.9883C65.2463 32.3723 64.7609 31.6437 64.4062 30.8037C64.0517 29.9638 63.875 29.0208 63.875 27.9756C63.875 26.9306 64.0518 25.9882 64.4062 25.1484C64.7609 24.3086 65.2464 23.5895 65.8623 22.9922C66.497 22.3762 67.2159 21.9091 68.0186 21.5918C68.8399 21.2558 69.7084 21.0879 70.623 21.0879C71.3695 21.0879 72.0414 21.1719 72.6387 21.3398C73.236 21.5078 73.787 21.751 74.291 22.0684C74.7948 22.3669 75.2613 22.7494 75.6904 23.2158L78.2949 20.668C77.3803 19.6786 76.2782 18.9037 74.9902 18.3438C73.7023 17.7839 72.2555 17.5039 70.6504 17.5039ZM34.3311 17.9521L30.7754 38H34.5273L38.083 17.9521H34.3311ZM40.3203 17.9521V38H44.0449V27.668L43.8203 23.8037H44.0449L52.5566 38H56.5332V17.9521H52.7803V27.5283L53.0049 31.3916H52.7803L44.7168 17.9521H40.3203ZM83.9883 17.9521V38H96.2529V34.416H87.7686V17.9521H83.9883ZM101.569 17.9521L98.0137 38H110.726L111.341 34.416H102.409L103.237 29.7676H111.285L111.93 26.1836H103.877L104.705 21.5361H113.637L114.281 17.9521H101.569ZM122.27 17.9521V38H126.05V30.6357H129.326C130.614 30.6357 131.771 30.3742 132.798 29.8516C133.824 29.3102 134.637 28.5643 135.234 27.6123C135.85 26.6417 136.158 25.5308 136.158 24.2803C136.158 23.0296 135.85 21.9276 135.234 20.9756C134.637 20.0236 133.824 19.2863 132.798 18.7637C131.771 18.2224 130.614 17.9522 129.326 17.9521H122.27ZM139.305 17.9521V38H155.794L158.294 33.2119H165.948L166.825 38H170.857L166.854 17.9521H162.43L151.569 37.8906V34.416H143.085V17.9521H139.305ZM172.016 17.9521L176.859 28.6758H176.861L175.207 38H178.987L180.642 28.6719L189.18 17.9521H184.504L179.464 24.5879H179.239L176.384 17.9521H172.016ZM191.749 17.9521L188.193 38H200.905L201.521 34.416H192.589L193.417 29.7676H201.465L202.109 26.1836H194.057L194.885 21.5361H203.816L204.461 17.9521H191.749ZM205.887 17.9521V38H209.667V30.4678H211.396L216.611 38H220.951V37.7764L215.496 29.9873C216.354 29.6908 217.1 29.2829 217.731 28.7598C218.403 28.1998 218.926 27.5464 219.299 26.7998C219.691 26.0346 219.887 25.1948 219.887 24.2803C219.887 23.0483 219.607 21.9559 219.047 21.0039C218.487 20.052 217.703 19.305 216.695 18.7637C215.706 18.2224 214.539 17.9522 213.195 17.9521H205.887ZM164.082 22.292L164.39 24.7002L165.312 29.7402H160.106L162.737 24.7002L163.857 22.292H164.082ZM129.438 21.5361C130.091 21.5361 130.642 21.6665 131.09 21.9277C131.538 22.189 131.874 22.5251 132.098 22.9355C132.322 23.3462 132.434 23.7949 132.434 24.2803C132.434 24.7655 132.322 25.2231 132.098 25.6523C131.874 26.0628 131.538 26.3989 131.09 26.6602C130.642 26.9214 130.091 27.0518 129.438 27.0518H126.05V21.5361H129.438ZM213.223 21.4521C213.839 21.4521 214.362 21.5825 214.791 21.8438C215.22 22.1051 215.538 22.4506 215.743 22.8799C215.967 23.2904 216.079 23.7384 216.079 24.2236C216.079 24.7463 215.949 25.223 215.688 25.6523C215.445 26.063 215.108 26.3892 214.679 26.6318C214.249 26.8744 213.746 26.9961 213.167 26.9961H209.667V21.4521H213.223Z" fill="var(--fill-0, white)"/>
</g>
</svg>
